# xmcd
#
# Track frame offsets: 
#        150
#        13117
#        23839
#        39207
#        54153
#        67824
#        82282
#        95637
#        116724
#        134404
#        145793
#        158157
#        171628
#        186112
#        197819
#        214024
#        230126
#        247379
#
# Disc length: 3471 seconds
#
# Revision: 2
# Processed by: cddbd v1.5.2PL0 Copyright (c) Steve Scherf et al.
# Submitted via: ExactAudioCopyFreeDBPlugin 1.0
#
DISCID=090d8d12
DTITLE=Various Artist - Holland Dozier Holland:  The Complete 45s Col
DTITLE=lection (Invictus, Hot Wax, Music Merchant), 1969-1977 [Harmles
DTITLE=s box set]
DYEAR=2014
DGENRE=Soul
TTITLE0=The Honey Cone - The Feeling's Gone
TTITLE1=The Flaming Ember - Filet de Soul (instrumental)
TTITLE2=100 Proof Aged in Soul - Not Enough Love to Satisfy
TTITLE3=The Flaming Ember - Don't You Wanna Wanna
TTITLE4=The Honey Cone - Take Me with You
TTITLE5=The Flaming Ember - Why Don't You Stay
TTITLE6=100 Proof Aged in Soul - I've Come to Save You
TTITLE7=The Flaming Ember - Deserted Village
TTITLE8=Laura Lee - Her Picture Matches Mine
TTITLE9=The Silent Majority - Colors of My Love
TTITLE10=100 Proof Aged in Soul - If I Could See the Light in the Wind
TTITLE10=ow (version 1)
TTITLE11=The Flaming Ember - Robot in a Robot's World
TTITLE12=The Honey Cone - We Belong Together
TTITLE13=McKinley Jackson and The Politicians - Love Machine (instrument
TTITLE13=al)
TTITLE14=The Flaming Ember - 1200 Miles
TTITLE15=100 Proof Aged in Soul - Love as Sweeter (The Second Time Aro
TTITLE15=und)
TTITLE16=The Honey Cone - V.I.P.
TTITLE17=The Flaming Ember - If It's Good to You (It's Good for You) (
TTITLE17=instrumental)
EXTD=
EXTT0=
EXTT1=
EXTT2=
EXTT3=
EXTT4=
EXTT5=
EXTT6=
EXTT7=
EXTT8=
EXTT9=
EXTT10=
EXTT11=
EXTT12=
EXTT13=
EXTT14=
EXTT15=
EXTT16=
EXTT17=
PLAYORDER=
